<?xml version="1.0" encoding="utf-8"?>
<!-- Generator: Adobe Illustrator 16.0.4, SVG Export Plug-In . SVG Version: 6.00 Build 0)  -->
<!DOCTYPE svg PUBLIC "-//W3C//DTD SVG 1.1//EN" "http://www.w3.org/Graphics/SVG/1.1/DTD/svg11.dtd">
<svg version="1.1" id="Layer_1" xmlns="http://www.w3.org/2000/svg" xmlns:xlink="http://www.w3.org/1999/xlink" x="0px" y="0px"
	 width="800px" height="300px" viewBox="0 0 800 300" enable-background="new 0 0 800 300" xml:space="preserve">
<g id="flagLeft">
	<rect id="flagPoleLeft" x="65" y="83" fill="#FFFFFF" width="4" height="144"/>
	<path id="leftGreenFlag2" fill="#F4A0A0" d="M28.5,108.83l41-15.33v32L28.5,108.83z"/>
	<path id="leftGreenFlag" fill="#633492" d="M28.5,88.83l41-15.33v32L28.5,88.83z"/>
</g>
<g id="flagRight">
	<rect id="flagPoleLeft2" x="725" y="83" fill="#FFFFFF" width="4" height="144"/>
	<path id="leftGreenFlag3" fill="#633492" d="M688.5,108.83l41-15.33v32L688.5,108.83z"/>
	<path id="leftGreenFlag4" fill="#F4A0A0" d="M688.5,88.83l41-15.33v32L688.5,88.83z"/>
</g>
<g id="brownHouse">
	<rect id="rectangle15" x="411" y="37" fill="#CA8A65" width="23" height="23"/>
	<rect id="rectangle16" x="414" y="41" fill="#C6F7FB" width="6" height="6"/>
	<rect id="rectangle17" x="426" y="41" fill="#C6F7FB" width="6" height="6"/>
	<rect id="rectangle18" x="414" y="51" fill="#C6F7FB" width="6" height="6"/>
	<rect id="rectangle19" x="426" y="51" fill="#70595E" width="6" height="9"/>
	<path id="polygon2" fill="#70595E" d="M422.5,25.38l15.44,12.41H407.06L422.5,25.38z"/>
	
		<linearGradient id="oval10_1_" gradientUnits="userSpaceOnUse" x1="225.4985" y1="369.0049" x2="225.4985" y2="348.9961" gradientTransform="matrix(1 0 0 -1 204 379)">
		<stop  offset="0" style="stop-color:#E0EBE8"/>
		<stop  offset="1" style="stop-color:#FFFFFF"/>
	</linearGradient>
	<path id="oval10" fill="url(#oval10_1_)" d="M427.01,19.3c0.09-5.51,1.29-9.66,2.66-9.28c1.38,0.39,2.42,5.17,2.32,10.68
		c-0.09,5.51-1.29,9.66-2.66,9.28C428.02,29.61,427,25.25,427,20"/>
	<rect id="rectangle20" x="426" y="26" fill="#70595E" width="6.5" height="9"/>
</g>
<g id="hills">
	<path id="backHill" fill="#633492" d="M212,231c0-98.86,84.62-179,189-179s189,80.14,189,179H401H212z"/>
	<path id="whiteHill" fill="#FFFFFF" d="M333,383c0-123.71,104.09-224,232.5-224S798,259.29,798,383H565.5H333z"/>
	<path id="leftHill" fill="#633492" d="M3,368c0-129.79,113.94-235,254.5-235C398.06,133,512,238.21,512,368H257.5H3z"/>
</g>
<g id="yellowTree">
	<ellipse id="oval" fill="#B63492" cx="104" cy="215.5" rx="12" ry="5.5"/>
	<path id="bezier" fill="#F6D546" d="M89.5,201.5l13.38-56l15.62,56H89.5z"/>
	<rect id="rectangle" x="103" y="178" fill="#AF946C" width="2" height="37"/>
	<path id="bezier2" fill="#AF946C" d="M103.5,187.34l5.73-5.84l1.27,1.3l-6.36,6.479l-0.43,0.221L103.5,187.34z"/>
	<path id="bezier3" fill="#AF946C" d="M103.5,195.34l5.73-5.84l1.27,1.3l-6.36,6.479l-0.43,0.221L103.5,195.34z"/>
	<path id="bezier4" fill="#AF946C" d="M104.5,191.34l-5.73-5.84l-1.27,1.3l6.36,6.479l0.43,0.221L104.5,191.34z"/>
</g>
<g id="yellowTree2">
	<ellipse id="oval3" fill="#B63492" cx="178.25" cy="187" rx="10.25" ry="4"/>
	<path id="bezier9" fill="#F4A0A0" d="M163.5,175.3l13.38-50.85l15.62,50.85H163.5z"/>
	<rect id="rectangle3" x="177" y="157" fill="#AF946C" width="2" height="30"/>
	<path id="bezier10" fill="#AF946C" d="M177.5,162.439l5.73-5.299l1.27,1.18l-6.36,5.89l-0.43,0.19L177.5,162.439z"/>
	<path id="bezier11" fill="#AF946C" d="M177.5,169.7l5.73-5.3l1.27,1.18l-6.36,5.89l-0.43,0.19L177.5,169.7z"/>
	<path id="bezier12" fill="#AF946C" d="M178.5,166.07l-5.73-5.301l-1.27,1.181l6.36,5.89l0.43,0.19L178.5,166.07z"/>
</g>
<g id="yellowTree3">
	<ellipse id="oval4" fill="#E0EBE8" cx="602.75" cy="195" rx="10.75" ry="4"/>
	<path id="bezier13" fill="#F4A0A0" d="M588.5,183.3l13.38-50.85l15.62,50.85H588.5z"/>
	<rect id="rectangle4" x="602" y="165" fill="#AF946C" width="2" height="30"/>
	<path id="bezier14" fill="#AF946C" d="M602.5,170.439l5.73-5.299l1.27,1.18l-6.36,5.89l-0.43,0.19L602.5,170.439z"/>
	<path id="bezier15" fill="#AF946C" d="M602.5,177.7l5.73-5.3l1.27,1.18l-6.36,5.891l-0.43,0.189L602.5,177.7z"/>
	<path id="bezier16" fill="#AF946C" d="M603.5,174.07l-5.73-5.301l-1.27,1.181l6.36,5.89l0.43,0.19L603.5,174.07z"/>
</g>
<g id="yellowTree4">
	<ellipse id="oval5" fill="#E0EBE8" cx="679" cy="211" rx="10" ry="4"/>
	<path id="bezier17" fill="#F6D546" d="M664.5,197.5l13.38-56l15.62,56H664.5z"/>
	<rect id="rectangle5" x="678" y="174" fill="#AF946C" width="2" height="37"/>
	<path id="bezier18" fill="#AF946C" d="M678.5,183.34l5.73-5.84l1.27,1.3l-6.36,6.479l-0.43,0.221L678.5,183.34z"/>
	<path id="bezier19" fill="#AF946C" d="M678.5,191.34l5.73-5.84l1.27,1.3l-6.36,6.479l-0.43,0.221L678.5,191.34z"/>
	<path id="bezier20" fill="#AF946C" d="M679.5,187.34l-5.73-5.84l-1.27,1.3l6.36,6.479l0.43,0.221L679.5,187.34z"/>
</g>
<g id="darkGreenTree2">
	<ellipse id="oval6" fill="#E0EBE8" cx="645" cy="249" rx="12" ry="4"/>
	<path id="bezier21" fill="#633492" d="M627.5,238.51l16.38-62.02L663,238.51H627.5z"/>
	<rect id="rectangle6" x="644" y="216" fill="#AF946C" width="2" height="33"/>
	<path id="bezier22" fill="#AF946C" d="M644.5,222.75l5.73-5.76l1.27,1.279l-6.36,6.41l-0.43,0.211L644.5,222.75z"/>
	<path id="bezier23" fill="#AF946C" d="M644.5,230.65l5.73-5.76l1.27,1.279l-6.36,6.41l-0.43,0.21L644.5,230.65z"/>
	<path id="bezier24" fill="#AF946C" d="M645.5,226.7l-5.73-5.761l-1.27,1.281l6.36,6.409l0.43,0.21L645.5,226.7z"/>
</g>
<g id="yellowTree5">
	<ellipse id="oval2" fill="#853492" cx="143" cy="199.5" rx="12" ry="5.5"/>
	<path id="bezier5" fill="#B63492" d="M127.5,185.5l14.77-69l17.23,69H127.5z"/>
	<rect id="rectangle2" x="142" y="162" fill="#AF946C" width="2" height="37"/>
	<path id="bezier6" fill="#AF946C" d="M142.5,171.34l5.73-5.84l1.27,1.3l-6.36,6.48l-0.43,0.22L142.5,171.34z"/>
	<path id="bezier7" fill="#AF946C" d="M142.5,179.34l5.73-5.84l1.27,1.3l-6.36,6.479l-0.43,0.221L142.5,179.34z"/>
	<path id="bezier8" fill="#AF946C" d="M143.5,175.34l-5.73-5.84l-1.27,1.3l6.36,6.48l0.43,0.22L143.5,175.34z"/>
</g>
<g id="yellowTree6">
	<ellipse id="oval7" fill="#B63492" cx="349" cy="90.5" rx="12" ry="5.5"/>
	<path id="bezier25" fill="#B63492" d="M333.5,76.5l14.77-69l17.23,69H333.5z"/>
	<rect id="rectangle7" x="348" y="53" fill="#AF946C" width="2" height="37"/>
	<path id="bezier26" fill="#AF946C" d="M348.5,62.34l5.73-5.84l1.27,1.3l-6.36,6.48l-0.43,0.22L348.5,62.34z"/>
	<path id="bezier27" fill="#AF946C" d="M348.5,70.34l5.73-5.84l1.27,1.3l-6.36,6.48l-0.43,0.22L348.5,70.34z"/>
	<path id="bezier28" fill="#AF946C" d="M349.5,66.34l-5.73-5.84l-1.27,1.3l6.36,6.48l0.43,0.22L349.5,66.34z"/>
</g>
<g id="yellowTree7">
	<ellipse id="oval8" fill="#B63492" cx="492.25" cy="104" rx="10.25" ry="4"/>
	<path id="bezier29" fill="#B63492" d="M477.5,92.3l13.38-50.85L506.5,92.3H477.5z"/>
	<rect id="rectangle8" x="491" y="74" fill="#AF946C" width="2" height="30"/>
	<path id="bezier30" fill="#AF946C" d="M491.5,79.44l5.73-5.3l1.27,1.18l-6.36,5.89l-0.43,0.19L491.5,79.44z"/>
	<path id="bezier31" fill="#AF946C" d="M491.5,86.7l5.73-5.3l1.27,1.18l-6.36,5.89l-0.43,0.19L491.5,86.7z"/>
	<path id="bezier32" fill="#AF946C" d="M492.5,83.07l-5.73-5.3l-1.27,1.18l6.36,5.89l0.43,0.19L492.5,83.07z"/>
</g>
<g id="blueHouse">
	<rect id="rectangle9" x="204" y="121" fill="#6DA0AB" width="30" height="30"/>
	<rect id="rectangle10" x="208" y="126" fill="#C6F7FB" width="8" height="8"/>
	<rect id="rectangle11" x="223" y="126" fill="#C6F7FB" width="8" height="8"/>
	<rect id="rectangle12" x="208" y="139" fill="#C6F7FB" width="8" height="8"/>
	<rect id="rectangle13" x="223" y="139" fill="#70595E" width="8" height="12"/>
	<path id="polygon" fill="#70595E" d="M219,106l19.92,16.12h-39.84L219,106z"/>
	
		<linearGradient id="oval9_1_" gradientUnits="userSpaceOnUse" x1="23.9995" y1="293.0029" x2="23.9995" y2="266.999" gradientTransform="matrix(1 0 0 -1 204 379)">
		<stop  offset="0" style="stop-color:#E0EBE8"/>
		<stop  offset="1" style="stop-color:#FFFFFF"/>
	</linearGradient>
	<path id="oval9" fill="url(#oval9_1_)" d="M225.01,98.09c0.11-7.16,1.55-12.56,3.2-12.06s2.9,6.71,2.78,13.88
		c-0.11,7.16-1.55,12.56-3.2,12.06C226.22,111.49,225,105.83,225,99"/>
	<rect id="rectangle14" x="224" y="107" fill="#70595E" width="7.5" height="12"/>
</g>
</svg>
