<?xml version="1.0" encoding="utf-8"?>
<!-- Generator: Adobe Illustrator 16.0.4, SVG Export Plug-In . SVG Version: 6.00 Build 0)  -->
<!DOCTYPE svg PUBLIC "-//W3C//DTD SVG 1.1//EN" "http://www.w3.org/Graphics/SVG/1.1/DTD/svg11.dtd">
<svg version="1.1" id="Layer_1" xmlns="http://www.w3.org/2000/svg" xmlns:xlink="http://www.w3.org/1999/xlink" x="0px" y="0px"
	 width="617.5px" height="284px" viewBox="0 0 617.5 284" enable-background="new 0 0 617.5 284" xml:space="preserve">
<pattern  x="-457.5" y="526.5" width="282" height="282" patternUnits="userSpaceOnUse" id="oval2_4_" viewBox="0 -282 282 282" overflow="visible">
	<g>
		<polygon fill="none" points="0,0 282,0 282,-282 0,-282 		"/>
		<g>
			<polygon fill="none" points="0,-282 282,-282 282,0 0,0 			"/>
			<path id="oval2_2_" fill="#F3F2F1" d="M0-141c0-77.872,63.128-141,141-141s141,63.128,141,141S218.872,0,141,0S0-63.128,0-141z"
				/>
		</g>
	</g>
</pattern>
<pattern  id="oval2_6_" xlink:href="#oval2_4_" patternTransform="matrix(1 0 0 -1 93.5005 -18156)">
</pattern>
<circle id="oval2" fill="#F3F2F1" stroke="url(#oval2_6_)" stroke-miterlimit="10" cx="141" cy="141" r="141"/>
<pattern  id="oval2_7_" xlink:href="#oval2_4_" patternTransform="matrix(0.5816 0 0 -0.5816 -2747.2515 -14219.5879)">
</pattern>
<circle id="oval2_3_" fill="#F3F2F1" stroke="url(#oval2_7_)" stroke-miterlimit="10" cx="505.5" cy="141" r="82"/>
<g>
	<g>
		<defs>
			<circle id="SVGID_1_" cx="141" cy="141" r="141"/>
		</defs>
		<clipPath id="SVGID_2_">
			<use xlink:href="#SVGID_1_"  overflow="visible"/>
		</clipPath>
		<g id="layer_1" clip-path="url(#SVGID_2_)">
			<g id="layer_1_1_">
				<path id="bezier2" fill="#D7A896" d="M106.18,234.3c11.06,4.14,13.23,25.63,4.84,48.011c-8.38,22.379-24.15,37.171-35.2,33.029
					c-11.06-4.14-13.23-25.64-4.84-48.01C79.36,244.95,95.13,230.16,106.18,234.3z"/>
				<path id="bezier" d="M85.45,313.56v17.102h113.31V313.56H85.45z"/>
				<path id="bezier3" fill="#1A1718" fill-opacity="0.3" d="M69.5,287.42c-1.68-1.109-1.74-5.52-0.23-10.18
					c-0.17,0.38-0.33,0.77-0.48,1.17c-1.94,5.08-2.03,10.18-0.2,11.39c1.84,1.21,4.88-1.93,6.82-7.01c0.15-0.41,0.29-0.81,0.42-1.21
					C73.9,285.96,71.18,288.529,69.5,287.42L69.5,287.42z"/>
				<path id="bezier4" fill="#D7A896" d="M171.82,222.3c-11.062,4.14-13.23,25.63-4.84,48.011
					c8.379,22.379,24.148,37.171,35.199,33.029c11.061-4.14,13.229-25.64,4.84-48.01C198.641,232.95,182.87,218.16,171.82,222.3z"/>
				<path id="bezier5" fill="#1A1718" fill-opacity="0.3" d="M195.561,296.25c-3.271,0-5.951-5.02-6.359-11.529
					c-0.04,0.559-0.061,1.129-0.061,1.709c0,7.32,2.869,13.25,6.409,13.25s6.421-5.93,6.421-13.25c0-0.58-0.031-1.149-0.07-1.709
					C201.5,291.221,198.811,296.25,195.561,296.25L195.561,296.25z"/>
				<path id="bezier6" fill="#431A94" d="M209.45,248.391l-19.56-27.771l-15.762,7.239l-1.398-4.569H109.82l-1.08,3.96l-14.42-6.63
					l-19.56,27.771l24.99,11.479L84.38,315.7h116.63l-17.02-55.61L209.45,248.391z"/>
				<path id="bezier7" fill="#FFFFFF" d="M142.1,252.67c10.041,0,18.179-8.13,18.179-18.16c0-10.029-8.139-18.16-18.179-18.16
					c-10.03,0-18.17,8.131-18.17,18.16C123.93,244.54,132.07,252.67,142.1,252.67z"/>
				<path id="bezier8" fill="#D5A691" d="M142.07,249.4c8.25,0,14.93-6.24,14.93-13.93c0-7.691-6.68-13.922-14.93-13.922
					c-8.25,0-14.93,6.229-14.93,13.922C127.14,243.16,133.82,249.4,142.07,249.4z"/>
				<path id="bezier9" fill="#D7A896" d="M46.43,168.27c7.97,0,14.43-6.459,14.43-14.42c0-7.97-6.46-14.43-14.43-14.43
					c-7.97,0-14.43,6.46-14.43,14.43C32,161.811,38.46,168.27,46.43,168.27z"/>
				<path id="bezier10" fill="#D7A896" d="M234.57,168.27c7.97,0,14.43-6.459,14.43-14.42c0-7.97-6.46-14.43-14.43-14.43
					c-7.971,0-14.43,6.46-14.43,14.43C220.141,161.811,226.6,168.27,234.57,168.27z"/>
				<path id="bezier11" fill="#D7A896" d="M141.57,235.58c52.84,0,95.67-33.49,95.67-74.79s-42.83-74.78-95.67-74.78
					c-52.84,0-95.67,33.48-95.67,74.78S88.73,235.58,141.57,235.58z"/>
				<path id="bezier12" fill="#1A1718" fill-opacity="0.38" d="M97.21,163.77c0,9.33-7.42-11.988-16.57-11.988
					S64.07,173.1,64.07,163.77c0-9.31,7.42-16.869,16.57-16.869S97.21,154.46,97.21,163.77L97.21,163.77z"/>
				<path id="bezier13" fill="#1A1718" fill-opacity="0.38" d="M224.41,163.77c0,9.33-7.42-11.988-16.57-11.988
					s-16.561,21.318-16.561,11.988c0-9.31,7.41-16.869,16.561-16.869C216.991,146.9,224.41,154.46,224.41,163.77L224.41,163.77z"/>
				<path id="bezier14" fill="#1A1718" fill-opacity="0.3" d="M206.24,134.82c11.85,0,21.55,8.15,22.38,18.491
					c0.04-0.471,0.069-0.951,0.069-1.431c0-11.01-10.049-19.93-22.449-19.93c-12.391,0-22.45,8.92-22.45,19.93
					c0,0.479,0.03,0.96,0.069,1.431C184.689,142.98,194.391,134.82,206.24,134.82L206.24,134.82z"/>
				<path id="bezier15" fill="#1A1718" fill-opacity="0.3" d="M80.1,134.82c11.86,0,21.56,8.15,22.39,18.491
					c0.03-0.471,0.06-0.951,0.06-1.431c0-11.01-10.05-19.93-22.45-19.93c-12.39,0-22.44,8.92-22.44,19.93
					c0,0.479,0.02,0.96,0.06,1.431C58.55,142.98,68.25,134.82,80.1,134.82L80.1,134.82z"/>
				<path id="bezier16" fill="#1E0000" d="M237.1,105.24c0.09-1.03,0.142-2.07,0.142-3.11c0-13.34-7.552-25.62-20.211-35.38
					c-1.529-1.18,5.181-14.96,3.511-16.06c-1.42-0.93-11.21,10.79-12.729,9.91c-0.73-0.42-1.48-0.84-2.23-1.24
					c-2.78-1.51,0.38-17.92-2.68-19.23c-2.67-1.14-11.53,12.81-14.4,11.83c-13.88-4.7-29.891-7.39-46.95-7.39
					c-51.86,0-94.07,24.81-95.65,55.77h191.2v4.9H237.1L237.1,105.24z"/>
				<path id="bezier17" fill="#1E0000" d="M237.24,98.83H46.02H45.9v59.82c0,0,62.46-19.72,83.27-26.3
					c13.04-4.12,52.13-16.46,52.13-16.46l55.94,42.76V103.72V98.83L237.24,98.83z"/>
				<path id="bezier18" fill="#2C2723" d="M141.03,317.84v13.892h1.07V317.84H141.03z"/>
				<path id="bezier19" fill="#1A1718" fill-opacity="0.3" d="M142.1,171.47c2.589,0,4.75,1.841,5.24,4.28
					c0.07-0.35,0.11-0.7,0.11-1.07c0-2.949-2.39-5.34-5.35-5.34c-2.95,0-5.34,2.391-5.34,5.34c0,0.37,0.04,0.721,0.11,1.07
					C137.36,173.311,139.52,171.47,142.1,171.47L142.1,171.47z"/>
				<path id="bezier20" fill="#F6AC2C" fill-opacity="0.5" d="M203.57,196.05c2.07,0,3.74-1.68,3.74-3.739
					c0-2.069-1.67-3.74-3.74-3.74s-3.74,1.671-3.74,3.74C199.83,194.37,201.5,196.05,203.57,196.05z"/>
				<path id="bezier21" fill="#F6AC2C" fill-opacity="0.5" d="M209.98,200.32c0.89,0,1.608-0.721,1.608-1.6
					c0-0.892-0.72-1.602-1.608-1.602c-0.881,0-1.602,0.71-1.602,1.602C208.38,199.6,209.1,200.32,209.98,200.32z"/>
				<path id="bezier22" fill="#F6AC2C" fill-opacity="0.5" d="M195.55,200.32c1.181,0,2.14-0.961,2.14-2.141
					c0-1.181-0.959-2.131-2.14-2.131c-1.18,0-2.14,0.95-2.14,2.131C193.41,199.359,194.37,200.32,195.55,200.32z"/>
				<path id="bezier23" fill="#F6AC2C" fill-opacity="0.5" d="M200.359,199.25c0.301,0,0.541-0.24,0.541-0.529
					c0-0.301-0.24-0.541-0.541-0.541c-0.289,0-0.529,0.24-0.529,0.541C199.83,199.01,200.07,199.25,200.359,199.25z"/>
				<path id="bezier24" fill="#F6AC2C" fill-opacity="0.5" d="M85.98,196.05c2.07,0,3.74-1.68,3.74-3.739
					c0-2.069-1.67-3.74-3.74-3.74c-2.06,0-3.74,1.671-3.74,3.74C82.24,194.37,83.92,196.05,85.98,196.05z"/>
				<path id="bezier25" fill="#F6AC2C" fill-opacity="0.5" d="M92.4,200.32c0.88,0,1.6-0.721,1.6-1.6c0-0.892-0.72-1.602-1.6-1.602
					c-0.89,0-1.61,0.71-1.61,1.602C90.79,199.6,91.51,200.32,92.4,200.32z"/>
				<path id="bezier26" fill="#F6AC2C" fill-opacity="0.5" d="M76.9,200.32c1.18,0,2.13-0.961,2.13-2.141
					c0-1.181-0.95-2.131-2.13-2.131c-1.18,0-2.14,0.95-2.14,2.131C74.76,199.359,75.72,200.32,76.9,200.32z"/>
				<path id="bezier27" fill="#F6AC2C" fill-opacity="0.5" d="M81.71,199.25c0.29,0,0.53-0.24,0.53-0.529
					c0-0.301-0.24-0.541-0.53-0.541c-0.3,0-0.54,0.24-0.54,0.541C81.17,199.01,81.41,199.25,81.71,199.25z"/>
				<path id="bezier28" fill="#070706" fill-opacity="0.05" d="M75.64,182.16c-8.36,0-15.89,3.55-21.19,9.23
					c9.09,15.979,25.09,28.988,45.01,36.709c3.29-4.74,5.23-10.5,5.23-16.721C104.69,195.24,91.68,182.16,75.64,182.16L75.64,182.16
					z"/>
				<path id="bezier29" fill="#070706" fill-opacity="0.05" d="M207.5,182.16c8.359,0,15.891,3.55,21.189,9.23
					c-9.09,15.979-25.09,28.988-45.01,36.709c-3.289-4.74-5.229-10.5-5.229-16.721C178.45,195.24,191.45,182.16,207.5,182.16
					L207.5,182.16z"/>
				<path id="bezier30" fill="#2C2723" d="M74.22,336c2.66,0,4.81-1.67,4.81-3.74c0-2.06-2.15-3.74-4.81-3.74
					c-2.65,0-4.81,1.682-4.81,3.74C69.41,334.33,71.57,336,74.22,336z"/>
				<path id="bezier31" fill="#2C2723" d="M81.71,336c2.65,0,4.81-1.67,4.81-3.74c0-2.06-2.16-3.74-4.81-3.74
					c-2.66,0-4.81,1.682-4.81,3.74C76.9,334.33,79.05,336,81.71,336z"/>
				<path id="bezier32" fill="#2C2723" d="M89.19,336c2.66,0,4.81-1.67,4.81-3.74c0-2.06-2.15-3.74-4.81-3.74s-4.81,1.682-4.81,3.74
					C84.38,334.33,86.53,336,89.19,336z"/>
				<path id="bezier33" fill="#2C2723" d="M97.74,336c2.66,0,4.81-1.67,4.81-3.74c0-2.06-2.15-3.74-4.81-3.74
					c-2.66,0-4.81,1.682-4.81,3.74C92.93,334.33,95.08,336,97.74,336z"/>
				<path id="bezier34" fill="#2C2723" d="M105.22,336c2.66,0,4.81-1.67,4.81-3.74c0-2.06-2.15-3.74-4.81-3.74
					c-2.65,0-4.81,1.682-4.81,3.74C100.41,334.33,102.57,336,105.22,336z"/>
				<path id="bezier35" fill="#2C2723" d="M112.71,336c2.65,0,4.81-1.67,4.81-3.74c0-2.06-2.16-3.74-4.81-3.74
					c-2.66,0-4.81,1.682-4.81,3.74C107.9,334.33,110.05,336,112.71,336z"/>
				<path id="bezier36" fill="#2C2723" d="M121.26,336c2.66,0,4.81-1.67,4.81-3.74c0-2.06-2.15-3.74-4.81-3.74
					c-2.66,0-4.81,1.682-4.81,3.74C116.45,334.33,118.6,336,121.26,336z"/>
				<path id="bezier37" fill="#2C2723" d="M128.74,336c2.66,0,4.81-1.67,4.81-3.74c0-2.06-2.15-3.74-4.81-3.74
					c-2.66,0-4.81,1.682-4.81,3.74C123.93,334.33,126.08,336,128.74,336z"/>
				<path id="bezier38" fill="#2C2723" d="M136.22,336c2.66,0,4.81-1.67,4.81-3.74c0-2.06-2.15-3.74-4.81-3.74
					c-2.65,0-4.81,1.682-4.81,3.74C131.41,334.33,133.57,336,136.22,336z"/>
				<path id="bezier39" fill="#2C2723" d="M146.91,336c2.66,0,4.811-1.67,4.811-3.74c0-2.06-2.15-3.74-4.811-3.74
					c-2.65,0-4.81,1.682-4.81,3.74C142.1,334.33,144.26,336,146.91,336z"/>
				<path id="bezier40" fill="#2C2723" d="M154.4,336c2.648,0,4.81-1.67,4.81-3.74c0-2.06-2.16-3.74-4.81-3.74
					c-2.66,0-4.812,1.682-4.812,3.74C149.59,334.33,151.74,336,154.4,336z"/>
				<path id="bezier41" fill="#2C2723" d="M161.88,336c2.66,0,4.81-1.67,4.81-3.74c0-2.06-2.148-3.74-4.81-3.74
					c-2.659,0-4.81,1.682-4.81,3.74C157.07,334.33,159.221,336,161.88,336z"/>
				<path id="bezier42" fill="#2C2723" d="M170.43,336c2.66,0,4.812-1.67,4.812-3.74c0-2.06-2.15-3.74-4.812-3.74
					c-2.66,0-4.81,1.682-4.81,3.74C165.62,334.33,167.77,336,170.43,336z"/>
				<path id="bezier43" fill="#2C2723" d="M177.91,336c2.66,0,4.811-1.67,4.811-3.74c0-2.06-2.15-3.74-4.811-3.74
					c-2.65,0-4.811,1.682-4.811,3.74C173.1,334.33,175.26,336,177.91,336z"/>
				<path id="bezier44" fill="#2C2723" d="M185.4,336c2.648,0,4.81-1.67,4.81-3.74c0-2.06-2.16-3.74-4.81-3.74
					c-2.66,0-4.812,1.682-4.812,3.74C180.59,334.33,182.74,336,185.4,336z"/>
				<path id="bezier45" fill="#2C2723" d="M193.95,336c2.649,0,4.81-1.67,4.81-3.74c0-2.06-2.16-3.74-4.81-3.74
					c-2.66,0-4.81,1.682-4.81,3.74C189.141,334.33,191.29,336,193.95,336z"/>
				<path id="bezier46" fill="#2C2723" d="M201.43,336c2.66,0,4.812-1.67,4.812-3.74c0-2.06-2.15-3.74-4.812-3.74
					c-2.66,0-4.81,1.682-4.81,3.74C196.62,334.33,198.77,336,201.43,336z"/>
				<path id="bezier47" fill="#2C2723" d="M208.91,336c2.66,0,4.811-1.67,4.811-3.74c0-2.06-2.15-3.74-4.811-3.74
					c-2.65,0-4.811,1.682-4.811,3.74C204.1,334.33,206.26,336,208.91,336z"/>
				<path id="bezier48" fill="#1A1718" fill-opacity="0.05" d="M142.1,180.02c24.21,0,43.83-2.148,43.83-4.81
					c0-2.649-19.619-4.8-43.83-4.8c-24.2,0-43.82,2.15-43.82,4.8C98.28,177.87,117.9,180.02,142.1,180.02z"/>
				<path id="bezier49" fill="#FFFFFF" d="M105.76,317.84c-20.08,0-36.35,6.69-36.35,14.95h72.69
					C142.1,324.53,125.83,317.84,105.76,317.84L105.76,317.84z"/>
				<path id="bezier50" fill="#FFFFFF" d="M178.45,317.84c-20.07,0-36.35,6.69-36.35,14.95h72.69
					C214.79,324.53,198.52,317.84,178.45,317.84L178.45,317.84z"/>
				<path id="bezier51" fill="#F1B89C" d="M69.88,268.971c-2.06-2.881-4.89-4.381-6.33-3.351c-1.45,1.03-0.94,4.2,1.12,7.069
					c2.06,2.881,4.9,4.381,6.34,3.359C72.45,275.02,71.94,271.85,69.88,268.971z"/>
			</g>
			<path id="bezier52" fill="none" stroke="#A48677" stroke-width="3" d="M173.1,199.811c0,6.76-13.379,12.26-29.93,12.26
				c-16.55,0-29.93-5.51-29.93-12.26c0-6.811,13.38-12.311,29.93-12.311C159.721,187.5,173.1,193,173.1,199.811L173.1,199.811z"/>
			<path id="bezier53" fill="#D7AC7F" d="M110.03,184.29v14.96h65.21v-14.96H110.03z"/>
		</g>
	</g>
</g>
<image overflow="visible" width="146" height="146" xlink:href="ps-logo.png"  transform="matrix(0.5 0 0 0.5 468.998 108.5)">
</image>
</svg>
